<?xml version="1.0" standalone="no"?>
<!DOCTYPE svg PUBLIC "-//W3C//DTD SVG 20010904//EN"
 "http://www.w3.org/TR/2001/REC-SVG-20010904/DTD/svg10.dtd">
<svg version="1.0" xmlns="http://www.w3.org/2000/svg"
 width="400.000000pt" height="114.000000pt" viewBox="0 0 400.000000 114.000000"
 preserveAspectRatio="xMidYMid meet">

<g transform="translate(0.000000,114.000000) scale(0.100000,-0.100000)"
fill="#000000" stroke="none">
<path d="M350 831 c0 -10 19 -25 25 -20 1 2 -3 10 -11 17 -8 7 -14 8 -14 3z"/>
<path d="M400 808 c0 -4 14 -8 30 -8 17 0 30 2 30 4 0 2 -13 6 -30 8 -16 3
-30 1 -30 -4z"/>
<path d="M510 708 c-21 -127 -49 -271 -55 -276 -14 -14 -30 26 -51 120 -22
104 -33 116 -14 17 18 -95 40 -159 54 -159 25 0 53 116 81 323 10 75 -2 55
-15 -25z"/>
<path d="M840 685 c0 -78 2 -85 20 -85 15 0 20 7 20 25 0 14 6 25 13 25 8 0
19 -11 25 -25 7 -15 20 -25 32 -25 24 0 25 4 5 34 -14 21 -14 24 0 36 23 19
19 66 -7 84 -12 9 -42 16 -65 16 l-43 0 0 -85z m74 49 c21 -8 21 -40 0 -48
-28 -11 -34 -7 -34 24 0 31 6 35 34 24z"/>
<path d="M1075 745 c-56 -55 -16 -145 63 -145 51 0 86 35 86 87 0 73 -96 111
-149 58z m105 -34 c5 -11 10 -24 10 -30 0 -16 -38 -51 -54 -51 -37 0 -61 61
-34 88 19 19 66 15 78 -7z"/>
<path d="M1326 749 c-35 -28 -37 -95 -3 -127 50 -47 147 -12 147 53 0 23 -3
25 -45 25 -33 0 -45 -4 -45 -15 0 -9 9 -15 25 -15 30 0 33 -15 5 -30 -43 -23
-88 17 -71 63 12 31 42 39 77 21 34 -18 44 -18 44 0 0 22 -40 46 -76 46 -17 0
-43 -9 -58 -21z"/>
<path d="M1550 685 l0 -85 60 0 c47 0 60 3 60 15 0 11 -11 15 -40 15 -33 0
-40 3 -40 20 0 16 7 20 35 20 24 0 35 5 35 15 0 10 -11 15 -35 15 -28 0 -35 4
-35 20 0 16 7 20 35 20 24 0 35 5 35 15 0 12 -13 15 -55 15 l-55 0 0 -85z"/>
<path d="M1750 685 c0 -78 2 -85 20 -85 15 0 20 7 20 25 0 14 6 25 13 25 8 0
19 -11 25 -25 7 -15 20 -25 32 -25 24 0 25 4 5 34 -14 21 -14 24 0 36 23 19
19 66 -7 84 -12 9 -42 16 -65 16 l-43 0 0 -85z m74 49 c32 -12 13 -54 -25 -54
-5 0 -9 14 -9 30 0 31 6 35 34 24z"/>
<path d="M1960 734 c0 -45 24 -42 28 4 2 24 -1 32 -12 32 -12 0 -16 -10 -16
-36z"/>
<path d="M2086 757 c-12 -9 -17 -23 -14 -42 2 -24 10 -32 36 -41 17 -5 37 -15
44 -22 18 -18 -18 -27 -47 -12 -34 18 -49 10 -30 -18 12 -16 26 -22 54 -22 75
0 84 62 13 95 -23 11 -41 24 -39 30 5 14 47 19 47 6 0 -6 9 -11 20 -11 25 0
26 12 2 33 -22 20 -61 22 -86 4z"/>
<path d="M2370 690 l0 -60 753 0 c415 0 756 2 758 4 2 2 2 29 1 60 l-4 56
-754 0 -754 0 0 -60z"/>
<path d="M372 680 c0 -14 2 -19 5 -12 2 6 2 18 0 25 -3 6 -5 1 -5 -13z"/>
<path d="M2120 280 c0 -56 3 -70 15 -70 8 0 15 9 15 20 0 11 6 20 14 20 8 0
18 -9 21 -20 3 -11 15 -20 25 -20 17 0 18 3 8 25 -9 19 -9 28 0 37 18 18 14
56 -7 68 -11 5 -36 10 -55 10 l-36 0 0 -70z m75 20 c0 -8 -10 -16 -22 -18 -18
-3 -23 2 -23 18 0 16 5 21 23 18 12 -2 22 -10 22 -18z"/>
<path d="M2300 280 l0 -70 51 0 c57 0 66 23 11 28 -42 4 -44 32 -2 32 37 0 40
18 3 22 -39 4 -42 28 -4 28 21 0 31 5 31 15 0 11 -12 15 -45 15 l-45 0 0 -70z"/>
<path d="M2472 338 c-25 -25 -6 -68 29 -68 22 0 34 -19 21 -32 -6 -6 -17 -5
-30 3 -25 16 -40 5 -22 -16 18 -22 77 -19 90 4 15 28 3 48 -36 61 -19 6 -34
15 -34 20 0 17 19 21 39 8 25 -15 39 -4 21 17 -15 18 -61 20 -78 3z"/>
<path d="M2620 335 c0 -9 9 -15 25 -15 24 0 25 -3 25 -55 0 -42 3 -55 15 -55
12 0 15 13 15 55 0 48 2 55 20 55 11 0 20 7 20 15 0 12 -13 15 -60 15 -47 0
-60 -3 -60 -15z"/>
<path d="M2841 328 c-5 -13 -16 -40 -25 -62 -20 -48 -20 -56 -1 -56 8 0 15 5
15 10 0 6 16 10 35 10 19 0 35 -4 35 -10 0 -5 7 -10 15 -10 20 0 19 6 -9 76
-26 64 -51 80 -65 42z m39 -54 c0 -8 -7 -14 -15 -14 -17 0 -18 2 -9 24 7 18
24 12 24 -10z"/>
<path d="M3000 292 c0 -32 5 -63 12 -70 17 -17 64 -15 82 4 22 21 23 124 2
124 -11 0 -16 -15 -18 -52 -3 -45 -6 -53 -23 -53 -17 0 -20 8 -23 53 -2 37 -7
52 -18 52 -10 0 -14 -14 -14 -58z"/>
<path d="M3190 280 c0 -56 3 -70 15 -70 8 0 15 9 15 20 0 11 4 20 10 20 5 0
15 -9 22 -20 7 -11 21 -20 32 -20 17 0 17 2 3 24 -14 21 -14 26 -2 36 38 32 4
80 -56 80 l-39 0 0 -70z m75 20 c0 -8 -10 -16 -22 -18 -18 -3 -23 2 -23 18 0
16 5 21 23 18 12 -2 22 -10 22 -18z"/>
<path d="M3394 315 c-47 -115 -45 -105 -23 -105 10 0 19 5 19 10 0 14 46 13
70 -2 31 -20 32 -4 4 66 -30 75 -48 83 -70 31z m46 -47 c0 -5 -7 -8 -15 -8
-15 0 -20 21 -8 33 7 7 23 -11 23 -25z"/>
<path d="M3550 280 c0 -63 2 -70 19 -70 16 0 20 8 23 38 l3 37 25 -37 c38 -57
50 -50 50 32 0 56 -3 70 -15 70 -11 0 -15 -11 -15 -37 l-1 -38 -30 38 c-47 57
-59 50 -59 -33z"/>
<path d="M3740 335 c0 -9 9 -15 25 -15 24 0 25 -3 25 -55 0 -42 3 -55 15 -55
12 0 15 13 15 55 0 48 2 55 20 55 11 0 20 7 20 15 0 12 -13 15 -60 15 -47 0
-60 -3 -60 -15z"/>
<path d="M423 270 c0 -41 2 -58 4 -37 2 20 2 54 0 75 -2 20 -4 3 -4 -38z"/>
<path d="M795 327 c-3 -7 -4 -39 -3 -72 l3 -60 618 -3 617 -2 0 75 0 75 -615
0 c-486 0 -617 -3 -620 -13z"/>
<path d="M453 260 c0 -41 2 -58 4 -37 2 20 2 54 0 75 -2 20 -4 3 -4 -38z"/>
<path d="M324 116 c-18 -14 -18 -15 9 -25 16 -6 36 -11 45 -10 10 1 7 4 -8 8
-15 4 -24 14 -24 24 2 21 3 20 -22 3z"/>
<path d="M548 123 c24 -5 29 -18 10 -29 -7 -5 -44 -11 -83 -15 l-70 -6 63 -2
c75 -1 131 21 111 45 -6 8 -21 13 -33 13 -20 -2 -20 -2 2 -6z"/>
</g>
</svg>
